<svg xmlns="http://www.w3.org/2000/svg" width="296" height="338" viewBox="0 0 296 338"><polyline points="184 238 110 246 110 301 194 301 194 246" fill="#ef6fbb"/><polygon points="109 302 195 302 195 246 193 246 193 300 111 300 111 246.9 184.11 238.99 183.89 237.01 109 245.1 109 302"/><polygon points="293 337 293 301.41 283.6 292.02 10.71 301.98 1.16 327.75 10.41 337 293 337" fill="#ef6fbb"/><path d="M283.2,293l8.8,8.8V336H10.83l-8.51-8.51L11.41,303,283.2,293m.8-2L10,301,0,328l10,10H294V301l-10-10Z"/><path d="M193,250h58a44.13,44.13,0,0,0,44-44V54c0-24.2-24.8-52-49-52L55,10A44.13,44.13,0,0,0,11,54L2,201c0,24.2,28.8,49,53,49h54.22l73.12-9.78" fill="#ef6fbb"/><path d="M55,251h54.35l73.12-9.78-.27-2-73,9.77H55c-24.79,0-52-25.12-52-48L12,54.06A43.06,43.06,0,0,1,55,11L246,3c22.84,0,48,26.69,48,51V206a43,43,0,0,1-43,43H193v2h58a45.05,45.05,0,0,0,45-45V54c0-11.76-5.87-25.13-15.69-35.75C270.17,7.29,257.67,1,246,1L55,9A45,45,0,0,0,10,54L1,200.94C1,224.83,29.26,251,55,251Z"/><path d="M237,239c25.79,0,46-18.89,46-43V44A43,43,0,0,0,240,1H44A43,43,0,0,0,1,44V196c0,22.91,18.69,43,40,43Z" fill="#ffb3d9"/><path d="M44,2H240a42,42,0,0,1,42,42V196a40.6,40.6,0,0,1-12.68,29.63C261,233.61,249.49,238,237,238H41c-20.78,0-39-19.63-39-42V44A42,42,0,0,1,44,2m0-2A44.13,44.13,0,0,0,0,44V196c0,24.2,19.8,44,41,44H237c27.2,0,47-19.8,47-44V44A44.13,44.13,0,0,0,240,0Z"/><rect x="1" y="292" width="282" height="35" fill="#ffb3d9"/><path d="M2,293H282v33H2V293m-2-2v37H284V291Z"/><rect x="101" y="239" width="82" height="53" fill="#ffb3d9"/><path d="M102,240h80v51H102V240m-2-2v55h84V238Z"/><circle cx="19" cy="310" r="8" fill="#ff1a66"/><path d="M10,310a9,9,0,1,1,9,9A9,9,0,0,1,10,310Zm2,0a7,7,0,1,0,7-7A7,7,0,0,0,12,310Z"/><line x1="194" y1="250" x2="184" y2="240" fill="#ccc"/><rect x="188" y="237.93" width="2" height="14.14" transform="translate(-117.88 205.4) rotate(-45)"/><line x1="293" y1="337" x2="283" y2="327" fill="#999"/><rect x="287" y="324.93" width="2" height="14.14" transform="translate(-150.41 300.89) rotate(-45)"/><rect x="35" y="302" width="7" height="16" transform="translate(77 620) rotate(-180)" fill="#ff1a66"/><path d="M34,301h9v18H34Zm7,2H36v14h5Z"/><path d="M229.76,230c23.92,0,42.65-17.36,42.65-39.52v-140A39.74,39.74,0,0,0,232.55,11h-182A39.74,39.74,0,0,0,10.65,50.52v140C10.65,211.53,28,230,47.73,230Z" fill="#fff"/><path d="M50.51,12h182a38.73,38.73,0,0,1,38.86,38.52v140a37.08,37.08,0,0,1-11.73,27.17C252,225,241.32,229,229.76,229h-182c-19.22,0-36.08-18-36.08-38.52v-140A38.73,38.73,0,0,1,50.51,12m0-2C28,10,9.65,28.23,9.65,50.52v140C9.65,212.77,28,231,47.73,231h182c25.26,0,43.65-18.23,43.65-40.52v-140C273.41,28.23,255,10,232.55,10Z"/><path d="M142,199.83c37.86,0,51.34-51.19,51.47-51.71l-1.94-.49c-.13.5-13.22,50.2-49.53,50.2s-49.4-49.7-49.53-50.2l-1.94.49C90.66,148.64,104.14,199.83,142,199.83Z"/><circle cx="197" cy="148.5" r="15" fill="#ffb3d9"/><path d="M181,148.5a16,16,0,1,1,16,16A16,16,0,0,1,181,148.5Zm2,0a14,14,0,1,0,14-14A14,14,0,0,0,183,148.5Z"/><circle cx="87" cy="148.5" r="15" fill="#ffb3d9"/><path d="M71,148.5a16,16,0,1,1,16,16A16,16,0,0,1,71,148.5Zm2,0a14,14,0,1,0,14-14A14,14,0,0,0,73,148.5Z"/><polygon points="207.93 116.45 208.57 114.55 162.9 99.02 208.56 83.95 207.94 82.05 156.6 98.98 207.93 116.45"/><polygon points="76.07 116.45 127.4 98.98 76.06 82.05 75.44 83.95 121.1 99.02 75.43 114.55 76.07 116.45"/><rect x="98.5" y="137.5" width="87" height="2"/><ellipse cx="226.54" cy="130.27" rx="6.92" ry="12.05" transform="translate(-34.78 130.72) rotate(-30)" fill="#94d6ff"/><path d="M226.06,141a18.53,18.53,0,0,1-6.38-6.73h0a18.53,18.53,0,0,1-2.64-8.89c0-3,1.05-5.26,3-6.37s4.41-.89,7,.61a19.94,19.94,0,0,1,9,15.62c0,3-1.05,5.26-3,6.37a5.4,5.4,0,0,1-2.69.7A8.72,8.72,0,0,1,226.06,141ZM221,120.7c-1.27.74-2,2.38-2,4.63a18,18,0,0,0,8,13.9c1.95,1.12,3.73,1.34,5,.6s2-2.38,2-4.63a17.94,17.94,0,0,0-8-13.89,6.74,6.74,0,0,0-3.3-1A3.43,3.43,0,0,0,221,120.7Z"/><ellipse cx="57.46" cy="130.27" rx="12.05" ry="6.92" transform="matrix(0.5, -0.87, 0.87, 0.5, -84.08, 114.9)" fill="#94d6ff"/><path d="M50.94,141.57c-1.92-1.11-3-3.38-3-6.37a19.94,19.94,0,0,1,9-15.62c2.6-1.5,5.08-1.72,7-.61s3,3.37,3,6.37a18.53,18.53,0,0,1-2.64,8.89h0A18.53,18.53,0,0,1,57.94,141a8.72,8.72,0,0,1-4.31,1.31A5.4,5.4,0,0,1,50.94,141.57Zm11.64-8.34a16.38,16.38,0,0,0,2.38-7.9c0-2.25-.7-3.89-2-4.63s-3.06-.52-5,.61a17.94,17.94,0,0,0-8,13.89c0,2.25.69,3.9,2,4.63s3.05.53,5-.6a16.48,16.48,0,0,0,5.64-6Z"/><ellipse cx="45" cy="112.44" rx="12.05" ry="6.92" transform="translate(-33.47 20.19) rotate(-18.57)" fill="#94d6ff"/><path d="M32.63,116.59c-1.41-4.2,2.91-9.32,9.85-11.65s13.47-.86,14.89,3.34-2.91,9.33-9.85,11.66a20.25,20.25,0,0,1-6.4,1.11C36.92,121.05,33.59,119.45,32.63,116.59Zm10.49-9.76c-5.68,1.91-9.61,6.09-8.59,9.13s6.68,4,12.35,2.09h0c5.68-1.91,9.61-6.09,8.59-9.13-.66-2-3.29-3.07-6.61-3.07A18.41,18.41,0,0,0,43.12,106.83Z"/><ellipse cx="239" cy="112.44" rx="6.92" ry="12.05" transform="translate(56.29 303.18) rotate(-71.43)" fill="#94d6ff"/><path d="M236.48,119.94h0c-6.93-2.33-11.26-7.45-9.85-11.66s8-5.67,14.89-3.34,11.26,7.45,9.85,11.65c-1,2.86-4.29,4.46-8.49,4.46A20.25,20.25,0,0,1,236.48,119.94Zm-7.95-11c-1,3,2.91,7.22,8.59,9.13h0c5.67,1.9,11.33,1,12.35-2.09s-2.91-7.22-8.59-9.13a18.41,18.41,0,0,0-5.74-1C231.82,105.85,229.19,106.94,228.53,108.92Z"/></svg>