<svg xmlns="http://www.w3.org/2000/svg" width="296" height="338" viewBox="0 0 296 338"><polyline points="184 238 110 246 110 301 194 301 194 246" fill="#ef6fbb"/><polygon points="109 302 195 302 195 246 193 246 193 300 111 300 111 246.9 184.11 238.99 183.89 237.01 109 245.1 109 302"/><polygon points="293 337 293 301.41 283.6 292.02 10.71 301.98 1.16 327.75 10.41 337 293 337" fill="#ef6fbb"/><path d="M283.2,293l8.8,8.8V336H10.83l-8.51-8.51L11.41,303,283.2,293m.8-2L10,301,0,328l10,10H294V301l-10-10Z"/><path d="M193,250h58a44.13,44.13,0,0,0,44-44V54c0-24.2-24.8-52-49-52L55,10A44.13,44.13,0,0,0,11,54L2,201c0,24.2,28.8,49,53,49h54.22l73.12-9.78" fill="#ef6fbb"/><path d="M55,251h54.35l73.12-9.78-.27-2-73,9.77H55c-24.79,0-52-25.12-52-48L12,54.06A43.06,43.06,0,0,1,55,11L246,3c22.84,0,48,26.69,48,51V206a43,43,0,0,1-43,43H193v2h58a45.05,45.05,0,0,0,45-45V54c0-11.76-5.87-25.13-15.69-35.75C270.17,7.29,257.67,1,246,1L55,9A45,45,0,0,0,10,54L1,200.94C1,224.83,29.26,251,55,251Z"/><path d="M237,239c25.79,0,46-18.89,46-43V44A43,43,0,0,0,240,1H44A43,43,0,0,0,1,44V196c0,22.91,18.69,43,40,43Z" fill="#ffb3d9"/><path d="M44,2H240a42,42,0,0,1,42,42V196a40.6,40.6,0,0,1-12.68,29.63C261,233.61,249.49,238,237,238H41c-20.78,0-39-19.63-39-42V44A42,42,0,0,1,44,2m0-2A44.13,44.13,0,0,0,0,44V196c0,24.2,19.8,44,41,44H237c27.2,0,47-19.8,47-44V44A44.13,44.13,0,0,0,240,0Z"/><rect x="1" y="292" width="282" height="35" fill="#ffb3d9"/><path d="M2,293H282v33H2V293m-2-2v37H284V291Z"/><rect x="101" y="239" width="82" height="53" fill="#ffb3d9"/><path d="M102,240h80v51H102V240m-2-2v55h84V238Z"/><circle cx="19" cy="310" r="8" fill="#ff1a66"/><path d="M10,310a9,9,0,1,1,9,9A9,9,0,0,1,10,310Zm2,0a7,7,0,1,0,7-7A7,7,0,0,0,12,310Z"/><line x1="194" y1="250" x2="184" y2="240" fill="#ccc"/><rect x="188" y="237.93" width="2" height="14.14" transform="translate(-117.88 205.4) rotate(-45)"/><line x1="293" y1="337" x2="283" y2="327" fill="#999"/><rect x="287" y="324.93" width="2" height="14.14" transform="translate(-150.41 300.89) rotate(-45)"/><rect x="35" y="302" width="7" height="16" transform="translate(77 620) rotate(-180)" fill="#ff1a66"/><path d="M34,301h9v18H34Zm7,2H36v14h5Z"/><path d="M229.76,230c23.92,0,42.65-17.36,42.65-39.52v-140A39.74,39.74,0,0,0,232.55,11h-182A39.74,39.74,0,0,0,10.65,50.52v140C10.65,211.53,28,230,47.73,230Z" fill="#fff"/><path d="M50.51,12h182a38.73,38.73,0,0,1,38.86,38.52v140a37.08,37.08,0,0,1-11.73,27.17C252,225,241.32,229,229.76,229h-182c-19.22,0-36.08-18-36.08-38.52v-140A38.73,38.73,0,0,1,50.51,12m0-2C28,10,9.65,28.23,9.65,50.52v140C9.65,212.77,28,231,47.73,231h182c25.26,0,43.65-18.23,43.65-40.52v-140C273.41,28.23,255,10,232.55,10Z"/><path d="M141.53,192c24.94,0,33.86-24.72,33.94-25l-1.89-.66c-.08.24-8.55,23.63-32.05,23.63s-32-23.39-32.06-23.63l-1.89.66C107.67,167.28,116.59,192,141.53,192Z"/><circle cx="196.53" cy="149" r="15" fill="#ffb3d9"/><path d="M180.53,149a16,16,0,1,1,16,16A16,16,0,0,1,180.53,149Zm2,0a14,14,0,1,0,14-14A14,14,0,0,0,182.53,149Z"/><circle cx="86.53" cy="149" r="15" fill="#ffb3d9"/><path d="M70.53,149a16,16,0,1,1,16,16A16,16,0,0,1,70.53,149Zm2,0a14,14,0,1,0,14-14A14,14,0,0,0,72.53,149Z"/><path d="M166.47,111.72c5.66,11.57,15.25,19.18,26.12,19.18,12,0,22.45-9.28,27.77-22.93" fill="#fff"/><path d="M192.59,131.9c12,0,23-9,28.7-23.57l-1.86-.72c-5.36,13.75-15.64,22.29-26.84,22.29-10.09,0-19.51-7-25.22-18.62l-1.79.88C171.62,124.52,181.72,131.9,192.59,131.9Z"/><line x1="192.59" y1="130.9" x2="192.59" y2="144.5" fill="#ffb3d9"/><rect x="191.59" y="130.9" width="2" height="13.6"/><line x1="210.7" y1="122.99" x2="220.35" y2="132.64" fill="#ffb3d9"/><rect x="214.53" y="120.99" width="2" height="13.65" transform="translate(-27.25 189.84) rotate(-45)"/><line x1="175.35" y1="122.99" x2="165.7" y2="132.64" fill="#ffb3d9"/><rect x="163.7" y="126.82" width="13.65" height="2" transform="translate(-40.43 158.01) rotate(-45)"/><path d="M116.58,111.72c-5.66,11.57-15.24,19.18-26.12,19.18-12,0-22.45-9.28-27.76-22.93" fill="#fff"/><path d="M90.46,131.9c10.88,0,21-7.38,27-19.74l-1.79-.88C110,122.94,100.55,129.9,90.46,129.9c-11.19,0-21.47-8.54-26.83-22.29l-1.86.72C67.43,122.87,78.42,131.9,90.46,131.9Z"/><rect x="89.46" y="130.9" width="2" height="13.6"/><line x1="72.36" y1="122.99" x2="62.7" y2="132.64" fill="#ffb3d9"/><rect x="60.7" y="126.82" width="13.65" height="2" transform="translate(-70.6 85.18) rotate(-45)"/><line x1="107.7" y1="122.99" x2="117.36" y2="132.64" fill="#ffb3d9"/><rect x="111.53" y="120.99" width="2" height="13.65" transform="translate(-57.42 117.01) rotate(-45)"/><path d="M233.56,227.79c10.46-1.1,13.94,10,14.11,10.56.17-.56,3.65-11.66,14.11-10.56s16.08,15.52,2,29.91c-12.23,12.48-15.34,14.28-16,14.54a.25.25,0,0,1-.24,0c-.62-.26-3.73-2.06-16-14.54C217.48,243.31,223,228.9,233.56,227.79Z" fill="#ff1a66"/><path d="M247.16,273.17c-.93-.4-4.38-2.63-16.29-14.77-7.45-7.6-10.4-16.31-7.88-23.3a12.3,12.3,0,0,1,10.47-8.3c8.28-.88,12.5,5.33,14.21,8.89,1.72-3.56,6-9.77,14.21-8.89a12.3,12.3,0,0,1,10.47,8.3c2.52,7-.43,15.7-7.88,23.3-11.9,12.14-15.36,14.37-16.28,14.76a1.39,1.39,0,0,1-.52.11A1.25,1.25,0,0,1,247.16,273.17Zm.79-1.84h0Zm-.55,0h0Zm1.23-32.68-1,3.16-1-3.16c-.13-.45-3.4-10.87-13-9.86h0a10.37,10.37,0,0,0-8.8,7C222.62,242,225.4,250,232.3,257c10.84,11.06,14.42,13.61,15.37,14.18,1-.56,4.51-3.1,15.37-14.18,6.9-7,9.68-15,7.43-21.23a10.37,10.37,0,0,0-8.8-7c-.44,0-.87-.07-1.29-.07C251.74,228.71,248.76,238.22,248.63,238.64Z"/><path d="M13.56,218.79c10.46-1.1,13.94,10,14.11,10.56.17-.56,3.65-11.66,14.11-10.56s16.08,15.52,2,29.91c-12.23,12.48-15.34,14.28-16,14.54a.26.26,0,0,1-.24,0c-.62-.26-3.73-2.06-16-14.54C-2.52,234.31,3,219.9,13.56,218.79Z" fill="#ff1a66"/><path d="M27.16,264.17c-.93-.4-4.38-2.63-16.29-14.77C3.42,241.8.47,233.09,3,226.1a12.3,12.3,0,0,1,10.47-8.3c8.29-.88,12.49,5.33,14.21,8.89,1.72-3.56,6-9.77,14.21-8.89a12.3,12.3,0,0,1,10.47,8.3c2.52,7-.43,15.7-7.88,23.3-11.9,12.14-15.36,14.37-16.28,14.76a1.39,1.39,0,0,1-.52.11A1.25,1.25,0,0,1,27.16,264.17Zm.79-1.84h0Zm-.55,0h0Zm1.23-32.68-1,3.16-1-3.16c-.13-.45-3.4-10.87-13-9.86h0a10.37,10.37,0,0,0-8.8,7C2.62,233,5.4,241,12.3,248c10.84,11.06,14.42,13.61,15.37,14.18.95-.56,4.51-3.1,15.37-14.18,6.9-7,9.68-15,7.43-21.23a10.37,10.37,0,0,0-8.8-7c-.44,0-.87-.07-1.29-.07C31.74,219.71,28.76,229.22,28.63,229.64Z"/><path d="M20.39,18.08c10.46-1.1,13.94,10,14.11,10.56.17-.56,3.65-11.66,14.11-10.56S64.69,33.6,50.58,48c-12.23,12.47-15.34,14.28-16,14.54a.26.26,0,0,1-.24,0c-.62-.26-3.73-2.07-16-14.54C4.31,33.6,9.82,19.19,20.39,18.08Z" fill="#ff1a66"/><path d="M34,63.45c-.93-.39-4.38-2.62-16.29-14.76-7.45-7.6-10.4-16.31-7.88-23.3a12.31,12.31,0,0,1,10.47-8.31h0c8.28-.87,12.49,5.33,14.21,8.9,1.72-3.57,5.93-9.78,14.21-8.9a12.31,12.31,0,0,1,10.47,8.31c2.52,7-.43,15.7-7.88,23.3C39.39,60.83,35.94,63.06,35,63.45a1.24,1.24,0,0,1-1,0Zm.78-1.84Zm-.54,0Zm1.23-32.69-1,3.18-1-3.18c-.13-.44-3.37-10.87-13-9.85h0a10.37,10.37,0,0,0-8.8,7c-2.25,6.25.53,14.19,7.43,21.23C30,58.36,33.55,60.91,34.5,61.47c.94-.56,4.51-3.1,15.37-14.18,6.9-7,9.68-15,7.43-21.23a10.37,10.37,0,0,0-8.8-7A11.57,11.57,0,0,0,47.2,19C38.55,19,35.58,28.5,35.46,28.92Z"/><path d="M233.39,18.08c10.46-1.1,13.94,10,14.11,10.56.17-.56,3.65-11.66,14.11-10.56s16.08,15.52,2,29.91c-12.23,12.47-15.34,14.28-16,14.54a.25.25,0,0,1-.24,0c-.62-.26-3.73-2.07-16-14.54C217.31,33.6,222.82,19.19,233.39,18.08Z" fill="#ff1a66"/><path d="M247,63.45c-.93-.39-4.38-2.62-16.29-14.76-7.45-7.6-10.4-16.31-7.88-23.3a12.31,12.31,0,0,1,10.47-8.31h0c8.28-.88,12.49,5.33,14.21,8.9,1.72-3.57,5.94-9.77,14.21-8.9a12.31,12.31,0,0,1,10.47,8.31c2.52,7-.43,15.7-7.88,23.3C252.39,60.83,248.94,63.06,248,63.45a1.24,1.24,0,0,1-1,0Zm.78-1.84Zm-.54,0Zm1.23-32.69-1,3.18-1-3.18c-.13-.44-3.38-10.86-13-9.85h0a10.37,10.37,0,0,0-8.8,7c-2.25,6.25.53,14.19,7.43,21.23C243,58.36,246.55,60.91,247.5,61.47c.94-.56,4.51-3.1,15.37-14.18,6.9-7,9.68-15,7.43-21.23a10.37,10.37,0,0,0-8.8-7,11.57,11.57,0,0,0-1.3-.07C251.55,19,248.58,28.5,248.46,28.92Z"/><path d="M187.62,4.68c6.7-.71,8.93,6.41,9,6.76.11-.35,2.34-7.47,9.05-6.76S216,14.62,207,23.85c-7.84,8-9.84,9.16-10.23,9.32a.15.15,0,0,1-.16,0c-.39-.16-2.39-1.32-10.23-9.32C177.31,14.62,180.84,5.39,187.62,4.68Z" fill="#ff1a66"/><path d="M196.66,34.19a1.18,1.18,0,0,1-.48-.1c-.76-.32-3.15-2-10.54-9.54-4.88-5-6.8-10.7-5.14-15.31a8.25,8.25,0,0,1,7-5.56h0c5.06-.53,7.84,2.88,9.15,5.27,1.31-2.39,4.08-5.81,9.15-5.27a8.25,8.25,0,0,1,7,5.56c1.66,4.61-.26,10.34-5.13,15.31-7.4,7.54-9.79,9.22-10.56,9.54A1.1,1.1,0,0,1,196.66,34.19Zm-.32-1.94h0Zm.63,0ZM188.52,5.63a7.39,7.39,0,0,0-.8,0h0a6.29,6.29,0,0,0-5.34,4.25c-1.39,3.87.36,8.82,4.68,13.23,6.4,6.52,8.82,8.4,9.6,8.92.78-.53,3.21-2.41,9.6-8.92,4.32-4.41,6.07-9.36,4.68-13.23a6.29,6.29,0,0,0-5.34-4.25c-5.89-.61-7.9,5.79-8,6.06l-1,3.19-1-3.19C195.63,11.47,193.8,5.63,188.52,5.63Z"/><path d="M262.62,136.68c6.7-.71,8.93,6.41,9,6.76.11-.35,2.34-7.47,9-6.76S291,146.62,282,155.85c-7.84,8-9.84,9.16-10.23,9.32a.15.15,0,0,1-.16,0c-.39-.16-2.39-1.32-10.23-9.32C252.31,146.62,255.84,137.39,262.62,136.68Z" fill="#ff1a66"/><path d="M271.66,166.19a1.18,1.18,0,0,1-.48-.1c-.76-.32-3.15-2-10.54-9.54-4.88-5-6.8-10.7-5.14-15.31a8.25,8.25,0,0,1,7-5.56h0c5.06-.54,7.84,2.88,9.15,5.27,1.31-2.39,4.08-5.81,9.15-5.27a8.25,8.25,0,0,1,7,5.56c1.66,4.61-.26,10.34-5.13,15.31-7.4,7.54-9.79,9.22-10.56,9.54A1.1,1.1,0,0,1,271.66,166.19Zm-.32-1.94h0Zm.63,0Zm-8.45-26.62a7.39,7.39,0,0,0-.8,0h0a6.29,6.29,0,0,0-5.34,4.25c-1.39,3.87.36,8.82,4.68,13.23,6.4,6.52,8.82,8.4,9.6,8.92.78-.53,3.21-2.41,9.6-8.92,4.32-4.41,6.07-9.36,4.68-13.23a6.29,6.29,0,0,0-5.34-4.25c-5.89-.62-7.9,5.79-8,6.06l-1,3.19-1-3.19C270.63,143.47,268.8,137.63,263.52,137.63Z"/><path d="M85.62,219.68c6.7-.71,8.93,6.41,9,6.76.11-.35,2.34-7.47,9-6.76S114,229.62,105,238.85c-7.84,8-9.84,9.16-10.23,9.32a.15.15,0,0,1-.16,0c-.39-.16-2.39-1.32-10.23-9.32C75.31,229.62,78.84,220.39,85.62,219.68Z" fill="#ff1a66"/><path d="M94.66,249.19a1.18,1.18,0,0,1-.48-.1c-.76-.32-3.15-2-10.54-9.54-4.88-5-6.8-10.7-5.14-15.31a8.25,8.25,0,0,1,7-5.56h0c5.06-.53,7.84,2.88,9.15,5.27,1.31-2.39,4.09-5.81,9.15-5.27a8.25,8.25,0,0,1,7,5.56c1.66,4.61-.26,10.34-5.13,15.31-7.4,7.54-9.79,9.22-10.56,9.54A1.1,1.1,0,0,1,94.66,249.19Zm-.32-1.94h0Zm.63,0Zm-8.45-26.62a7.39,7.39,0,0,0-.8,0h0a6.29,6.29,0,0,0-5.34,4.25c-1.39,3.87.36,8.82,4.68,13.23,6.4,6.52,8.82,8.4,9.6,8.92.78-.53,3.21-2.41,9.6-8.92,4.32-4.41,6.07-9.36,4.68-13.23a6.29,6.29,0,0,0-5.34-4.25c-5.89-.62-7.9,5.79-8,6.06l-1,3.19-1-3.19C93.63,226.47,91.8,220.63,86.52,220.63Z"/><path d="M11.62,81.68c6.7-.71,8.93,6.41,9,6.76.11-.35,2.34-7.47,9.05-6.76S40,91.62,31,100.85c-7.84,8-9.84,9.16-10.23,9.32a.15.15,0,0,1-.16,0c-.39-.16-2.39-1.32-10.23-9.32C1.31,91.62,4.84,82.39,11.62,81.68Z" fill="#ff1a66"/><path d="M20.66,111.19a1.18,1.18,0,0,1-.48-.1c-.76-.32-3.15-2-10.54-9.54-4.88-5-6.8-10.7-5.14-15.31a8.25,8.25,0,0,1,7-5.56h0c5-.53,7.84,2.88,9.15,5.27,1.31-2.39,4.08-5.8,9.15-5.27a8.25,8.25,0,0,1,7,5.56c1.66,4.61-.26,10.34-5.13,15.31-7.4,7.54-9.79,9.22-10.56,9.54A1.1,1.1,0,0,1,20.66,111.19Zm-.32-1.94h0Zm.63,0ZM12.52,82.63a7.39,7.39,0,0,0-.8,0h0a6.29,6.29,0,0,0-5.34,4.25c-1.39,3.87.36,8.82,4.68,13.23,6.4,6.52,8.82,8.4,9.6,8.92.78-.53,3.21-2.41,9.6-8.92,4.32-4.41,6.07-9.36,4.68-13.23a6.29,6.29,0,0,0-5.34-4.25c-5.88-.62-7.9,5.79-8,6.06l-1,3.19-1-3.19C19.63,88.47,17.8,82.63,12.52,82.63Z"/></svg>