<svg xmlns="http://www.w3.org/2000/svg" width="296" height="338" viewBox="0 0 296 338"><polyline points="184 238 110 246 110 301 194 301 194 246" fill="#ef6fbb"/><polygon points="109 302 195 302 195 246 193 246 193 300 111 300 111 246.9 184.11 238.99 183.89 237.01 109 245.1 109 302"/><polygon points="293 337 293 301.41 283.6 292.02 10.71 301.98 1.16 327.75 10.41 337 293 337" fill="#ef6fbb"/><path d="M283.2,293l8.8,8.8V336H10.83l-8.51-8.51L11.41,303,283.2,293m.8-2L10,301,0,328l10,10H294V301l-10-10Z"/><path d="M193,250h58a44.13,44.13,0,0,0,44-44V54c0-24.2-24.8-52-49-52L55,10A44.13,44.13,0,0,0,11,54L2,201c0,24.2,28.8,49,53,49h54.22l73.12-9.78" fill="#ef6fbb"/><path d="M55,251h54.35l73.12-9.78-.27-2-73,9.77H55c-24.79,0-52-25.12-52-48L12,54.06A43.06,43.06,0,0,1,55,11L246,3c22.84,0,48,26.69,48,51V206a43,43,0,0,1-43,43H193v2h58a45.05,45.05,0,0,0,45-45V54c0-11.76-5.87-25.13-15.69-35.75C270.17,7.29,257.67,1,246,1L55,9A45,45,0,0,0,10,54L1,200.94C1,224.83,29.26,251,55,251Z"/><path d="M237,239c25.79,0,46-18.89,46-43V44A43,43,0,0,0,240,1H44A43,43,0,0,0,1,44V196c0,22.91,18.69,43,40,43Z" fill="#ffb3d9"/><path d="M44,2H240a42,42,0,0,1,42,42V196a40.6,40.6,0,0,1-12.68,29.63C261,233.61,249.49,238,237,238H41c-20.78,0-39-19.63-39-42V44A42,42,0,0,1,44,2m0-2A44.13,44.13,0,0,0,0,44V196c0,24.2,19.8,44,41,44H237c27.2,0,47-19.8,47-44V44A44.13,44.13,0,0,0,240,0Z"/><rect x="1" y="292" width="282" height="35" fill="#ffb3d9"/><path d="M2,293H282v33H2V293m-2-2v37H284V291Z"/><rect x="101" y="239" width="82" height="53" fill="#ffb3d9"/><path d="M102,240h80v51H102V240m-2-2v55h84V238Z"/><circle cx="19" cy="310" r="8" fill="#ff1a66"/><path d="M10,310a9,9,0,1,1,9,9A9,9,0,0,1,10,310Zm2,0a7,7,0,1,0,7-7A7,7,0,0,0,12,310Z"/><line x1="194" y1="250" x2="184" y2="240" fill="#ccc"/><rect x="188" y="237.93" width="2" height="14.14" transform="translate(-117.88 205.4) rotate(-45)"/><line x1="293" y1="337" x2="283" y2="327" fill="#999"/><rect x="287" y="324.93" width="2" height="14.14" transform="translate(-150.41 300.89) rotate(-45)"/><rect x="35" y="302" width="7" height="16" transform="translate(77 620) rotate(-180)" fill="#ff1a66"/><path d="M34,301h9v18H34Zm7,2H36v14h5Z"/><path d="M229.76,230c23.92,0,42.65-17.36,42.65-39.52v-140A39.74,39.74,0,0,0,232.55,11h-182A39.74,39.74,0,0,0,10.65,50.52v140C10.65,211.53,28,230,47.73,230Z" fill="#fff"/><path d="M50.51,12h182a38.73,38.73,0,0,1,38.86,38.52v140a37.08,37.08,0,0,1-11.73,27.17C252,225,241.32,229,229.76,229h-182c-19.22,0-36.08-18-36.08-38.52v-140A38.73,38.73,0,0,1,50.51,12m0-2C28,10,9.65,28.23,9.65,50.52v140C9.65,212.77,28,231,47.73,231h182c25.26,0,43.65-18.23,43.65-40.52v-140C273.41,28.23,255,10,232.55,10Z"/><ellipse cx="100.5" cy="98.5" rx="30.5" ry="42.5"/><path d="M100.5,57C116.77,57,130,75.62,130,98.5S116.77,140,100.5,140,71,121.38,71,98.5,84.23,57,100.5,57m0-2C83.1,55,69,74.48,69,98.5S83.1,142,100.5,142,132,122.52,132,98.5,117.9,55,100.5,55Z"/><ellipse cx="182.5" cy="98.5" rx="30.5" ry="42.5"/><path d="M182.5,57C198.77,57,212,75.62,212,98.5S198.77,140,182.5,140,153,121.38,153,98.5,166.23,57,182.5,57m0-2C165.1,55,151,74.48,151,98.5S165.1,142,182.5,142,214,122.52,214,98.5,199.9,55,182.5,55Z"/><line x1="182.5" y1="55" x2="182.5" y2="41.4" fill="#ffb3d9"/><rect x="181.5" y="41.4" width="2" height="13.6"/><line x1="164.39" y1="62.91" x2="154.74" y2="53.26" fill="#ffb3d9"/><rect x="158.57" y="51.26" width="2" height="13.65" transform="translate(5.66 129.84) rotate(-45)"/><line x1="199.74" y1="62.91" x2="209.39" y2="53.26" fill="#ffb3d9"/><rect x="197.74" y="57.09" width="13.65" height="2" transform="translate(18.84 161.66) rotate(-45)"/><line x1="100.5" y1="55" x2="100.5" y2="41.4" fill="#ffb3d9"/><rect x="99.5" y="41.4" width="2" height="13.6"/><line x1="82.39" y1="62.91" x2="72.74" y2="53.26" fill="#ffb3d9"/><rect x="76.57" y="51.26" width="2" height="13.65" transform="translate(-18.36 71.86) rotate(-45)"/><line x1="117.74" y1="62.91" x2="127.39" y2="53.26" fill="#ffb3d9"/><rect x="115.74" y="57.09" width="13.65" height="2" transform="translate(-5.18 103.68) rotate(-45)"/><path d="M142,201c25,0,33.88-33.71,34-34.05l-1.94-.49c-.08.32-8.58,32.54-32,32.54s-31.95-32.22-32-32.54L108,167C108.12,167.29,117,201,142,201Z"/><ellipse cx="114.83" cy="80" rx="8.61" ry="15" transform="translate(-23.03 55.89) rotate(-24.94)" fill="#fff"/><path d="M106.12,84.05a22.74,22.74,0,0,1-2.28-11.18c.32-3.63,1.82-6.25,4.25-7.38s5.39-.59,8.37,1.51a22.63,22.63,0,0,1,7.09,9c3.78,8.13,2.92,16.28-2,18.56a6.3,6.3,0,0,1-2.68.58C114.44,95.09,109.25,90.78,106.12,84.05Zm2.81-16.74c-1.75.81-2.85,2.84-3.1,5.73a20.69,20.69,0,0,0,2.1,10.17c3.2,6.88,9.08,11.22,12.81,9.48s4.19-9,1-15.9a20.72,20.72,0,0,0-6.44-8.16,8.12,8.12,0,0,0-4.55-1.71A4.28,4.28,0,0,0,108.93,67.31Z"/><ellipse cx="196.83" cy="80" rx="8.61" ry="15" transform="translate(-15.38 90.47) rotate(-24.94)" fill="#fff"/><path d="M188.12,84.05a22.74,22.74,0,0,1-2.28-11.18c.32-3.63,1.82-6.25,4.25-7.38s5.39-.59,8.37,1.51a22.63,22.63,0,0,1,7.09,9c3.78,8.13,2.92,16.28-2,18.56a6.3,6.3,0,0,1-2.68.58C196.44,95.09,191.25,90.78,188.12,84.05Zm2.81-16.74c-1.75.81-2.85,2.84-3.1,5.73a20.69,20.69,0,0,0,2.1,10.17c3.2,6.88,9.07,11.22,12.81,9.48s4.19-9,1-15.9a20.72,20.72,0,0,0-6.44-8.16,8.12,8.12,0,0,0-4.55-1.71A4.28,4.28,0,0,0,190.93,67.31Z"/><circle cx="197" cy="148.5" r="15" fill="#ffb3d9"/><path d="M181,148.5a16,16,0,1,1,16,16A16,16,0,0,1,181,148.5Zm2,0a14,14,0,1,0,14-14A14,14,0,0,0,183,148.5Z"/><circle cx="87" cy="148.5" r="15" fill="#ffb3d9"/><path d="M71,148.5a16,16,0,1,1,16,16A16,16,0,0,1,71,148.5Zm2,0a14,14,0,1,0,14-14A14,14,0,0,0,73,148.5Z"/><polygon points="181.87 65.92 183.6 64.48 185.76 65.08 184.92 63 186.16 61.13 183.92 61.28 182.52 59.52 181.98 61.7 179.87 62.48 181.78 63.68 181.87 65.92" fill="#fff"/><polygon points="98.87 66.92 100.6 65.48 102.76 66.08 101.92 64 103.16 62.13 100.92 62.28 99.52 60.52 98.98 62.7 96.87 63.48 98.78 64.68 98.87 66.92" fill="#fff"/></svg>