<svg xmlns="http://www.w3.org/2000/svg" width="296" height="338" viewBox="0 0 296 338"><polyline points="184 238 110 246 110 301 194 301 194 246" fill="#ef6fbb"/><polygon points="109 302 195 302 195 246 193 246 193 300 111 300 111 246.9 184.11 238.99 183.89 237.01 109 245.1 109 302"/><polygon points="293 337 293 301.41 283.6 292.02 10.71 301.98 1.16 327.75 10.41 337 293 337" fill="#ef6fbb"/><path d="M283.2,293l8.8,8.8V336H10.83l-8.51-8.51L11.41,303,283.2,293m.8-2L10,301,0,328l10,10H294V301l-10-10Z"/><path d="M193,250h58a44.13,44.13,0,0,0,44-44V54c0-24.2-24.8-52-49-52L55,10A44.13,44.13,0,0,0,11,54L2,201c0,24.2,28.8,49,53,49h54.22l73.12-9.78" fill="#ef6fbb"/><path d="M55,251h54.35l73.12-9.78-.27-2-73,9.77H55c-24.79,0-52-25.12-52-48L12,54.06A43.06,43.06,0,0,1,55,11L246,3c22.84,0,48,26.69,48,51V206a43,43,0,0,1-43,43H193v2h58a45.05,45.05,0,0,0,45-45V54c0-11.76-5.87-25.13-15.69-35.75C270.17,7.29,257.67,1,246,1L55,9A45,45,0,0,0,10,54L1,200.94C1,224.83,29.26,251,55,251Z"/><path d="M237,239c25.79,0,46-18.89,46-43V44A43,43,0,0,0,240,1H44A43,43,0,0,0,1,44V196c0,22.91,18.69,43,40,43Z" fill="#ffb3d9"/><path d="M44,2H240a42,42,0,0,1,42,42V196a40.6,40.6,0,0,1-12.68,29.63C261,233.61,249.49,238,237,238H41c-20.78,0-39-19.63-39-42V44A42,42,0,0,1,44,2m0-2A44.13,44.13,0,0,0,0,44V196c0,24.2,19.8,44,41,44H237c27.2,0,47-19.8,47-44V44A44.13,44.13,0,0,0,240,0Z"/><rect x="1" y="292" width="282" height="35" fill="#ffb3d9"/><path d="M2,293H282v33H2V293m-2-2v37H284V291Z"/><rect x="101" y="239" width="82" height="53" fill="#ffb3d9"/><path d="M102,240h80v51H102V240m-2-2v55h84V238Z"/><circle cx="19" cy="310" r="8" fill="#ff1a66"/><path d="M10,310a9,9,0,1,1,9,9A9,9,0,0,1,10,310Zm2,0a7,7,0,1,0,7-7A7,7,0,0,0,12,310Z"/><line x1="194" y1="250" x2="184" y2="240" fill="#ccc"/><rect x="188" y="237.93" width="2" height="14.14" transform="translate(-117.88 205.4) rotate(-45)"/><line x1="293" y1="337" x2="283" y2="327" fill="#999"/><rect x="287" y="324.93" width="2" height="14.14" transform="translate(-150.41 300.89) rotate(-45)"/><rect x="35" y="302" width="7" height="16" transform="translate(77 620) rotate(-180)" fill="#ff1a66"/><path d="M34,301h9v18H34Zm7,2H36v14h5Z"/><path d="M229.76,230c23.92,0,42.65-17.36,42.65-39.52v-140A39.74,39.74,0,0,0,232.55,11h-182A39.74,39.74,0,0,0,10.65,50.52v140C10.65,211.53,28,230,47.73,230Z" fill="#fff"/><path d="M50.51,12h182a38.73,38.73,0,0,1,38.86,38.52v140a37.08,37.08,0,0,1-11.73,27.17C252,225,241.32,229,229.76,229h-182c-19.22,0-36.08-18-36.08-38.52v-140A38.73,38.73,0,0,1,50.51,12m0-2C28,10,9.65,28.23,9.65,50.52v140C9.65,212.77,28,231,47.73,231h182c25.26,0,43.65-18.23,43.65-40.52v-140C273.41,28.23,255,10,232.55,10Z"/><ellipse cx="100.5" cy="98.5" rx="30.5" ry="42.5" fill="#fff"/><path d="M100.5,57C116.77,57,130,75.62,130,98.5S116.77,140,100.5,140,71,121.38,71,98.5,84.23,57,100.5,57m0-2C83.1,55,69,74.48,69,98.5S83.1,142,100.5,142,132,122.52,132,98.5,117.9,55,100.5,55Z"/><ellipse cx="182.5" cy="98.5" rx="30.5" ry="42.5" fill="#fff"/><path d="M182.5,57C198.77,57,212,75.62,212,98.5S198.77,140,182.5,140,153,121.38,153,98.5,166.23,57,182.5,57m0-2C165.1,55,151,74.48,151,98.5S165.1,142,182.5,142,214,122.52,214,98.5,199.9,55,182.5,55Z"/><line x1="182.5" y1="55" x2="182.5" y2="41.4" fill="#ffb3d9"/><rect x="181.5" y="41.4" width="2" height="13.6"/><line x1="164.39" y1="62.91" x2="154.74" y2="53.26" fill="#ffb3d9"/><rect x="158.57" y="51.26" width="2" height="13.65" transform="translate(5.66 129.84) rotate(-45)"/><line x1="199.74" y1="62.91" x2="209.39" y2="53.26" fill="#ffb3d9"/><rect x="197.74" y="57.09" width="13.65" height="2" transform="translate(18.84 161.66) rotate(-45)"/><line x1="100.5" y1="55" x2="100.5" y2="41.4" fill="#ffb3d9"/><rect x="99.5" y="41.4" width="2" height="13.6"/><line x1="82.39" y1="62.91" x2="72.74" y2="53.26" fill="#ffb3d9"/><rect x="76.57" y="51.26" width="2" height="13.65" transform="translate(-18.36 71.86) rotate(-45)"/><line x1="117.74" y1="62.91" x2="127.39" y2="53.26" fill="#ffb3d9"/><rect x="115.74" y="57.09" width="13.65" height="2" transform="translate(-5.18 103.68) rotate(-45)"/><ellipse cx="173" cy="109" rx="15.5" ry="27"/><path d="M156.5,109c0-15.44,7.4-28,16.5-28s16.5,12.56,16.5,28-7.4,28-16.5,28S156.5,124.44,156.5,109Zm2,0c0,14.34,6.5,26,14.5,26s14.5-11.66,14.5-26S181,83,173,83,158.5,94.66,158.5,109Z"/><ellipse cx="91" cy="109" rx="15.5" ry="27"/><path d="M74.5,109c0-15.44,7.4-28,16.5-28s16.5,12.56,16.5,28-7.4,28-16.5,28S74.5,124.44,74.5,109Zm2,0c0,14.34,6.5,26,14.5,26s14.5-11.66,14.5-26S99,83,91,83,76.5,94.66,76.5,109Z"/><circle cx="197" cy="148.5" r="15" fill="#ffb3d9"/><path d="M181,148.5a16,16,0,1,1,16,16A16,16,0,0,1,181,148.5Zm2,0a14,14,0,1,0,14-14A14,14,0,0,0,183,148.5Z"/><circle cx="87" cy="148.5" r="15" fill="#ffb3d9"/><path d="M71,148.5a16,16,0,1,1,16,16A16,16,0,0,1,71,148.5Zm2,0a14,14,0,1,0,14-14A14,14,0,0,0,73,148.5Z"/><path d="M79.77,168.35c5.89-3.27,10.73,2.4,11,2.69,0-.37-.77-7.8,5.68-9.77s13.38,5.13,8.66,17.15C101,188.85,99.61,190.7,99.31,191a.2.2,0,0,1-.14.06c-.43,0-2.72-.29-13.07-4.58C74.17,181.54,73.81,171.65,79.77,168.35Z" fill="#ff1a66"/><path d="M99.17,192.07c-.84,0-3.69-.61-13.45-4.66-6.43-2.67-10.44-7.18-10.72-12.08a8.28,8.28,0,0,1,4.28-7.86c4.46-2.47,8.35-.42,10.49,1.28.27-2.72,1.5-6.95,6.35-8.43a8.24,8.24,0,0,1,8.63,2.37c3.33,3.6,3.8,9.62,1.26,16.1-3.85,9.83-5.4,12.31-6,12.91A1.19,1.19,0,0,1,99.17,192.07ZM83.51,168.34a6.67,6.67,0,0,0-3.26.88h0a6.3,6.3,0,0,0-3.25,6c.23,4.11,3.78,8,9.49,10.35,8.43,3.5,11.4,4.28,12.32,4.45.5-.78,2-3.45,5.34-12,2.26-5.75,1.93-11-.87-14a6.28,6.28,0,0,0-6.57-1.82c-5.66,1.73-5,8.42-5,8.7l.36,3.3L90,171.68C89.83,171.51,87.15,168.34,83.51,168.34Z"/><path d="M141.35,178.57c-5.11,0-14.84-.47-18.39-3.84a4.34,4.34,0,0,1-1.46-3.23c0-8.64,20.64-9,23-9v2c-5.44,0-21,1.37-21,7a2.41,2.41,0,0,0,.84,1.78c3.46,3.29,15.69,3.44,20.11,3.22l.1,2C144.37,178.51,143.15,178.57,141.35,178.57Z"/><path d="M144.5,192.56c-2.36,0-23-.35-23-9a4.34,4.34,0,0,1,1.46-3.23c4.79-4.55,20.91-3.8,21.59-3.77l-.1,2c-4.42-.23-16.65-.07-20.11,3.22a2.41,2.41,0,0,0-.84,1.78c0,5.64,15.56,7,21,7Z"/></svg>